<svg width="195" height="49" viewBox="0 0 591 151" fill="none" xmlns="http://www.w3.org/2000/svg">
<rect x="272" y="24" width="295" height="84" fill="#2C2C2C"/>
<path d="M64.6875 87.125C64.6875 80.2083 60.8958 74.2917 53.3125 69.375C52.2292 68.7917 47.8542 66.4583 40.1875 62.375C33.1875 58.7083 28.8125 55.0833 27.0625 51.5C26.2292 49.75 25.8125 47.9167 25.8125 46C25.8125 41.0833 28.1875 37.8333 32.9375 36.25C34.5208 35.75 36.1875 35.5 37.9375 35.5C44.7708 35.5 49.8958 38.0833 53.3125 43.25C55.3958 46.5 56.4792 50.375 56.5625 54.875H61.4375V32.25C59.1042 32.25 57.7292 33.0417 57.3125 34.625C57.2292 35.2083 57.1875 35.875 57.1875 36.625C50.2708 33.375 42.9792 31.75 35.3125 31.75C25.2292 31.75 17.6458 34.375 12.5625 39.625C9.3125 43.0417 7.6875 47.0833 7.6875 51.75C7.6875 58.6667 11.6458 64.5833 19.5625 69.5C20.5625 70.1667 25.0625 72.5417 33.0625 76.625C40.2292 80.375 44.6875 84 46.4375 87.5C47.1875 89.1667 47.5625 90.875 47.5625 92.625C47.5625 98.625 44.8958 102.625 39.5625 104.625C37.6458 105.292 35.5208 105.625 33.1875 105.625C24.3542 105.625 18.1458 101.583 14.5625 93.5C13.0625 90.0833 12.1458 86.1667 11.8125 81.75H6.9375V108.25C9.1875 108.25 10.5208 107.583 10.9375 106.25C11.1042 105.417 11.1875 104.292 11.1875 102.875C17.6042 107.125 25.3542 109.25 34.4375 109.25C45.0208 109.25 53.1458 106.542 58.8125 101.125C62.7292 97.2917 64.6875 92.625 64.6875 87.125ZM90.6875 80.875C90.6875 69.2083 92.1042 61.75 94.9375 58.5C96.6875 56.5833 99.1458 55.625 102.312 55.625C107.646 55.625 111.062 58.3333 112.562 63.75C113.562 67.25 114.062 72.7917 114.062 80.375C114.062 92.5417 112.479 100.208 109.312 103.375C107.479 105.125 105.104 106 102.188 106C97.0208 106 93.6875 103.333 92.1875 98C91.1875 94.4167 90.6875 88.7083 90.6875 80.875ZM102.938 52.375C92.6875 52.375 84.8125 55.875 79.3125 62.875C75.4792 67.875 73.5625 73.7083 73.5625 80.375C73.5625 89.7917 76.8125 97.25 83.3125 102.75C88.4792 107.083 94.6458 109.25 101.812 109.25C111.646 109.25 119.354 105.708 124.938 98.625C129.104 93.2917 131.188 87.125 131.188 80.125C131.188 70.7917 127.896 63.5 121.312 58.25C116.229 54.3333 110.104 52.375 102.938 52.375ZM182.062 108H204.438C204.438 106.083 203.938 105 202.938 104.75C202.521 104.667 202.021 104.625 201.438 104.625H195.688V26.75H168.438V30H179.812V57.75C175.562 54.0833 170.479 52.25 164.562 52.25C156.646 52.25 150.188 55.2917 145.188 61.375C140.854 66.875 138.688 73.7917 138.688 82.125C138.688 92.4583 142.062 100.083 148.812 105C152.646 107.833 156.896 109.25 161.562 109.25C169.312 109.25 175.062 105.958 178.812 99.375C179.396 98.375 179.896 97.3333 180.312 96.25L182.062 108ZM155.812 80.625C155.812 68.4583 158.438 60.7917 163.688 57.625C165.188 56.7917 166.771 56.375 168.438 56.375C174.438 56.375 178.146 61 179.562 70.25C179.896 72.75 180.062 75.4167 180.062 78.25C180.062 90.75 177.438 98.7083 172.188 102.125C170.688 103.042 169.062 103.5 167.312 103.5C161.479 103.5 157.854 98.75 156.438 89.25C156.021 86.6667 155.812 83.7917 155.812 80.625ZM254.812 109.25C260.896 109.25 264.688 107.042 266.188 102.625C266.688 100.958 267.062 98.8333 267.312 96.25L264.062 96.125C263.562 101.875 262.104 104.792 259.688 104.875C257.854 104.708 256.938 102.625 256.938 98.625V72.5C256.938 62.0833 252.104 55.6667 242.438 53.25C239.938 52.6667 237.229 52.375 234.312 52.375C222.979 52.375 215.854 54.8333 212.938 59.75C212.188 61 211.812 62.3333 211.812 63.75C211.812 67 213.354 69.0417 216.438 69.875C217.188 70.125 217.979 70.25 218.812 70.25C222.396 70.25 224.812 68.5 226.062 65C226.229 64.5 226.479 63.6667 226.812 62.5C227.729 59.1667 228.896 57.0833 230.312 56.25C231.229 55.8333 232.271 55.625 233.438 55.625C237.354 55.625 239.729 58 240.562 62.75C240.896 64.5 241.062 66.5833 241.062 69V77.125C219.646 77.5417 208.896 83.2083 208.812 94.125C208.812 101.542 212.062 106.292 218.562 108.375C220.479 108.958 222.604 109.25 224.938 109.25C232.021 109.25 237.229 106.583 240.562 101.25C241.229 100.167 241.771 99.0417 242.188 97.875C243.938 105.042 248.146 108.833 254.812 109.25ZM231.438 103.875C227.271 103.708 225.146 100 225.062 92.75C225.062 87.25 227.312 83.6667 231.812 82C234.229 81.25 237.312 80.7917 241.062 80.625V92.75C239.479 98.5833 236.938 102.167 233.438 103.5C232.688 103.75 232.021 103.875 231.438 103.875Z" fill="black"/>
<path d="M296.125 104.875H291.875L292 74.75C292.583 68 295.083 63.2083 299.5 60.375C301.167 59.375 302.792 58.875 304.375 58.875C308.042 58.875 310.667 60.9583 312.25 65.125C312.917 67.0417 313.25 69.25 313.25 71.75V97.75C313.25 101.333 312.375 103.5 310.625 104.25C309.542 104.667 307.917 104.875 305.75 104.875V108H332.5C332.5 106.167 331.958 105.167 330.875 105C330.458 104.917 329.958 104.875 329.375 104.875H325.125V73.375V72.5C326.208 66.25 328.875 62 333.125 59.75C334.458 59.0833 335.792 58.75 337.125 58.75C341.042 58.75 343.792 60.875 345.375 65.125C346.125 67.125 346.5 69.3333 346.5 71.75V97.75C346.5 101.333 345.667 103.5 344 104.25C343 104.667 341.375 104.875 339.125 104.875V108H367.125C367.125 106.167 366.583 105.167 365.5 105C365.083 104.917 364.583 104.875 364 104.875H358.5V73.125C358.5 64.625 355.708 58.6667 350.125 55.25C347.625 53.8333 344.958 53.125 342.125 53.125C335.208 53.125 329.833 56.25 326 62.5C325.333 63.5833 324.75 64.7083 324.25 65.875C322.5 59.5417 319.083 55.5417 314 53.875C312.5 53.375 311.042 53.125 309.625 53.125C302.875 53.125 297.583 56.0833 293.75 62C293 63.25 292.333 64.5 291.75 65.75L291.125 54.625H271.375V57.75H279.875V97.75C279.875 101.5 278.667 103.708 276.25 104.375C275.083 104.708 273.458 104.875 271.375 104.875V108H299.25C299.25 106.167 298.625 105.167 297.375 105C297.042 104.917 296.625 104.875 296.125 104.875ZM418.5 109.25C424.333 109.25 427.917 106.625 429.25 101.375C429.667 99.875 429.917 98.1667 430 96.25L426.75 96.125C426.167 102.042 424.583 105.042 422 105.125C420 104.958 418.958 102.833 418.875 98.75V72.5C418.708 59.6667 411.667 53.2083 397.75 53.125C387.667 53.125 381.083 55.375 378 59.875C377.083 61.2917 376.625 62.7083 376.625 64.125C376.625 66.7917 377.875 68.5 380.375 69.25C381.042 69.4167 381.708 69.5 382.375 69.5C384.958 69.5 386.75 68.125 387.75 65.375C387.917 64.9583 388.125 64.3333 388.375 63.5C389.458 60.1667 390.792 58.0417 392.375 57.125C393.542 56.5417 394.958 56.25 396.625 56.25C403.375 56.4167 406.792 60.7917 406.875 69.375V77.375C386.875 77.625 375.833 82.1667 373.75 91C373.5 92.1667 373.375 93.375 373.375 94.625C373.375 101.292 376.25 105.75 382 108C384.167 108.833 386.542 109.25 389.125 109.25C395.458 109.25 400.542 107.083 404.375 102.75C405.625 101.25 406.583 99.6667 407.25 98C408.5 105.417 412.25 109.167 418.5 109.25ZM394.25 104.125C389.667 104.125 386.958 101.417 386.125 96C385.958 95 385.875 93.9167 385.875 92.75C385.875 87.0833 388.875 83.5 394.875 82C397.958 81.25 401.958 80.8333 406.875 80.75V91.625C405.458 97.4583 402.542 101.333 398.125 103.25C396.792 103.833 395.5 104.125 394.25 104.125ZM478 108H497.75C497.75 106.083 497.208 105.042 496.125 104.875C495.708 104.792 495.25 104.75 494.75 104.75H488.625L488.5 26.75H464.75V29.875H476.5V59.25C472.417 55.0833 467.083 53 460.5 53C451.833 53 445.083 56.625 440.25 63.875C436.833 69.2083 435.125 75.4167 435.125 82.5C435.125 92.6667 438.417 100.208 445 105.125C448.667 107.875 452.792 109.25 457.375 109.25C466.042 109.25 472.292 105.042 476.125 96.625C476.292 96.2083 476.458 95.7917 476.625 95.375L478 108ZM448.375 81C448.375 69.4167 451.208 61.875 456.875 58.375C458.792 57.2083 460.875 56.625 463.125 56.625C469.042 56.625 473.083 60.1667 475.25 67.25C476.25 70.5 476.75 74.2917 476.75 78.625C476.75 89.4583 474.208 97 469.125 101.25C466.958 103.083 464.5 104 461.75 104C455.583 104 451.5 99.9167 449.5 91.75C448.75 88.5833 448.375 85 448.375 81ZM531.625 56.25C536.958 56.25 540.333 58.9583 541.75 64.375C542.167 65.9583 542.375 67.5833 542.375 69.25C542.375 73.3333 540.667 75.8333 537.25 76.75C535.333 77.25 532.625 77.4167 529.125 77.25L518 77C518.333 66.3333 521.417 59.7083 527.25 57.125C528.583 56.5417 530.042 56.25 531.625 56.25ZM554 95.625L551 94.625C548.25 100.375 544 103.917 538.25 105.25C536.917 105.583 535.583 105.75 534.25 105.75C523.833 105.75 518.417 97.4167 518 80.75C518 80.6667 518 80.5833 518 80.5L531.625 80.75C543.042 81 550.167 79.625 553 76.625C554.333 75.0417 555 73.0417 555 70.625C555 64.375 551.875 59.625 545.625 56.375C541.458 54.2083 536.75 53.125 531.5 53.125C521.583 53.125 514.208 56.9167 509.375 64.5C506.292 69.3333 504.75 74.9583 504.75 81.375C504.75 92.4583 508.792 100.417 516.875 105.25C521.292 107.917 526.292 109.25 531.875 109.25C541.292 109.25 548.083 105.875 552.25 99.125C552.917 97.9583 553.5 96.7917 554 95.625Z" fill="white"/>
</svg>
